<?xml version="1.0" encoding="UTF-8"?>
<svg id="Layer_1" data-name="Layer 1" xmlns="http://www.w3.org/2000/svg" viewBox="0 0 1490.09 1490.09">
  <defs>
    <style>
      .cls-1 {
        fill: #231f20;
      }
    </style>
  </defs>
  <g>
    <path class="cls-1" d="M138.71,6.94L221.54,0l39.25,468.64,238.42-298.65,98.98-8.29-180.29,227.67,237.56,286.25-99.99,8.37-192.17-230.04-93.97,116.7,11.42,136.35-82.82,6.94L138.71,6.94Z"/>
    <path class="cls-1" d="M1129.88,559.62l6.34,75.75-45.45,3.81c-33,2.76-57.12-1.99-72.39-14.28-15.27-12.28-24.35-31.53-27.21-57.73-34.94,60.57-90.12,94-165.52,100.31-57.24,4.79-104.32-4.82-141.25-28.86-36.94-24.02-57.34-59.27-61.23-105.73-4.34-51.84,10.01-93.04,43.04-123.62,33.04-30.56,83.22-48.67,150.56-54.31l151.5-12.69-2.96-35.35c-2.82-33.66-16.3-58.98-40.43-75.95-24.15-16.95-56.4-23.76-96.8-20.37-35.7,2.99-64.48,13.38-86.39,31.14-21.91,17.77-34.46,40.01-37.64,66.72l-82.82,6.94c1.83-51.01,20.91-92.27,57.27-123.8,36.34-31.52,85.49-49.88,147.44-55.07,65.98-5.53,118.33,6.21,157.03,35.16,38.69,28.97,60.56,73.42,65.58,133.34l18.61,222.2c2.09,24.92,14.57,36.41,37.47,34.49l25.25-2.11ZM974.1,411.96l-159.58,13.36c-76.76,6.43-112.74,38.27-107.95,95.49,2.14,25.6,13.96,45.28,35.46,59.07,21.5,13.81,49.42,19.25,83.76,16.38,50.5-4.23,89.11-20.84,115.84-49.88,26.72-29.02,38.26-65.41,34.59-109.18l-2.11-25.25Z"/>
  </g>
  <g>
    <path class="cls-1" d="M1148.34,764.39v491.57c0,156.09-85.49,234.13-256.43,234.13-66.89,0-121.47-15.2-163.69-45.61-42.24-30.41-66.74-73.66-73.48-129.73h85.14c6.75,32.43,23.98,57.42,51.69,75,27.7,17.56,63.17,26.35,106.42,26.35,111.49,0,167.24-54.4,167.24-163.18v-60.81c-37.17,63.52-96.29,95.27-177.37,95.27-47.99,0-90.71-10.47-128.21-31.42-37.5-20.94-66.89-51.34-88.18-91.22-21.28-39.86-31.93-87.16-31.93-141.9s10.64-97.97,31.93-137.84c21.28-39.86,50.84-70.95,88.69-93.25,37.83-22.3,80.4-33.45,127.71-33.45,41.89,0,77.69,8.28,107.44,24.83,29.73,16.56,53.04,40.03,69.94,70.44l11.15-89.19h71.96ZM984.65,1189.57c26-15.87,46.12-38.17,60.31-66.89,14.19-28.71,21.28-61.32,21.28-97.81s-7.1-70.44-21.28-99.83c-14.19-29.39-34.3-52.2-60.31-68.41-26.02-16.22-55.59-24.32-88.69-24.32-51.36,0-92.74,17.74-124.16,53.21-31.42,35.47-47.13,81.26-47.13,137.34s15.71,101.86,47.13,137.34c31.42,35.47,72.8,53.21,124.16,53.21,33.1,0,62.67-7.93,88.69-23.82Z"/>
    <path class="cls-1" d="M1291.24,579.93c10.14,10.14,15.2,22.98,15.2,38.52s-5.07,28.38-15.2,38.51c-10.14,10.14-22.98,15.2-38.52,15.2s-28.38-5.07-38.51-15.2c-10.14-10.14-15.2-22.96-15.2-38.51s5.07-28.38,15.2-38.52,22.96-15.2,38.51-15.2,28.38,5.07,38.52,15.2ZM1211.17,764.39h83.11v516.91h-83.11v-516.91Z"/>
  </g>
  <path class="cls-1" d="M577.73,1202.64v111.29c-178.32-123.78-311.36-308.38-368.7-523.57h88.2c38.88,170.05,141.15,316.22,280.49,412.28Z"/>
</svg>