<?xml version="1.0" encoding="UTF-8"?>
<svg id="Layer_1" xmlns="http://www.w3.org/2000/svg" xmlns:xlink="http://www.w3.org/1999/xlink" viewBox="0 0 1080 1080">
  <defs>
    <style>
      .cls-1 {
        clip-path: url(#clippath-4);
      }

      .cls-2 {
        fill: none;
      }

      .cls-3 {
        clip-path: url(#clippath-1);
      }

      .cls-4 {
        clip-path: url(#clippath-5);
      }

      .cls-5 {
        clip-path: url(#clippath-3);
      }

      .cls-6 {
        clip-path: url(#clippath-2);
      }

      .cls-7 {
        clip-path: url(#clippath);
      }
    </style>
    <clipPath id="clippath">
      <rect class="cls-2" x="506.67" y="209.33" width="82.67" height="729.33"/>
    </clipPath>
    <clipPath id="clippath-1">
      <rect class="cls-2" x="185.1" y="544.57" width="726.11" height="58.01" transform="translate(-43.03 1102.7) rotate(-88.13)"/>
    </clipPath>
    <clipPath id="clippath-2">
      <rect class="cls-2" x="501.95" y="958.27" width="60.43" height="60.43"/>
    </clipPath>
    <clipPath id="clippath-3">
      <circle class="cls-2" cx="532.16" cy="988.48" r="30.21" transform="translate(-584.72 1101.86) rotate(-67.5)"/>
    </clipPath>
    <clipPath id="clippath-4">
      <rect class="cls-2" x="532.16" y="108" width="60.43" height="60.43"/>
    </clipPath>
    <clipPath id="clippath-5">
      <circle class="cls-2" cx="562.38" cy="138.21" r="30.21" transform="translate(-10.88 56.09) rotate(-5.65)"/>
    </clipPath>
  </defs>
  <g id="_x36_3ed54a328">
    <g class="cls-7">
      <g class="cls-3">
        <path d="M531.01,209.77l57.98,1.9-23.68,725.68-57.98-1.89,23.68-725.68Z"/>
      </g>
    </g>
    <path d="M299.81,320.97l9.54,154.27-50.56,3.13-21.46-346.42,49.9-3.08,7.98,128.88,3.21-.21c5.23-14.34,13.86-26.03,25.88-35.04,12.01-9.01,28.11-14.15,48.29-15.4,17.8-1.09,33.61,1.61,47.44,8.13,13.82,6.5,24.86,16.77,33.15,30.79,8.29,14.03,13.11,31.87,14.46,53.52l10.23,165.27-50.58,3.13-9.85-159.17c-1.18-19.07-7.01-33.57-17.48-43.5-10.46-9.93-24.43-14.35-41.92-13.27-11.95.74-22.47,3.94-31.58,9.6-9.1,5.66-16.03,13.52-20.79,23.6-4.75,10.08-6.7,22.01-5.83,35.77Z"/>
    <path d="M626.05,465.08l2.6-34.65,154.06-168.02.19-2.38-136.06-10.25,3.29-43.94,199.08,14.98-2.77,36.83-148.48,166.27-.17,2.38,139.94,10.54-3.31,43.94-208.38-15.71Z"/>
    <path d="M300.5,804.04l-.33-61.88h8.81l103.73-110.15h60.67l-118.29,125.42h-7.98l-46.6,46.6ZM253.89,892.33v-347.08h50.67v347.08h-50.67ZM418.29,892.33l-93.21-123.73,34.92-35.42,120.5,159.15h-62.21Z"/>
    <path d="M713.01,853.17c-16.39,1.7-31.53.16-45.42-4.6-13.89-4.78-25.29-12.61-34.21-23.5-8.91-10.9-14.23-24.84-15.98-41.81-1.5-14.61.07-26.92,4.73-36.94,4.65-10.03,11.47-18.28,20.46-24.77,9-6.5,19.25-11.76,30.75-15.77,11.51-4.01,23.32-7.39,35.42-10.13,15.33-3.39,27.77-6.17,37.31-8.33,9.55-2.18,16.38-4.84,20.48-7.98,4.11-3.15,5.85-7.76,5.23-13.83l-.13-1.19c-1.52-14.72-6.82-25.7-15.92-32.94-9.1-7.23-21.79-10.02-38.08-8.35-16.97,1.75-29.94,6.86-38.9,15.33-8.95,8.47-14.81,17.45-17.58,26.94l-48.48-5.92c4-16.32,10.92-29.9,20.77-40.73,9.86-10.83,21.64-19.2,35.33-25.1,13.71-5.9,28.36-9.66,43.98-11.27,10.34-1.05,21.46-.96,33.35.27,11.89,1.22,23.24,4.52,34.06,9.88,10.83,5.35,20.11,13.62,27.85,24.81,7.73,11.2,12.57,26.23,14.52,45.1l17.67,171.96-49.25,5.06-3.65-35.4-2,.21c-2.58,6.83-6.81,13.74-12.69,20.71-5.88,6.97-13.72,13.07-23.52,18.29-9.79,5.21-21.83,8.54-36.13,10ZM719.84,811.57c13.93-1.43,25.58-5.41,34.96-11.94,9.39-6.53,16.23-14.52,20.54-23.98,4.3-9.47,5.93-19.32,4.88-29.56l-3.42-33.38c-1.63,1.97-4.92,3.98-9.88,6.02-4.96,2.03-10.65,3.92-17.06,5.67-6.41,1.74-12.66,3.35-18.75,4.83-6.08,1.47-11.18,2.71-15.27,3.71-9.66,2.22-18.35,5.21-26.1,8.96-7.74,3.75-13.71,8.6-17.92,14.54-4.21,5.95-5.85,13.41-4.94,22.4,1.29,12.49,6.86,21.43,16.73,26.83,9.88,5.41,21.95,7.37,36.23,5.9Z"/>
    <g class="cls-6">
      <g class="cls-5">
        <path d="M501.95,958.27h60.43v60.43h-60.43v-60.43Z"/>
      </g>
    </g>
    <g class="cls-1">
      <g class="cls-4">
        <path d="M532.16,108h60.43v60.43h-60.43v-60.43Z"/>
      </g>
    </g>
  </g>
</svg>